<?xml version="1.0" encoding="UTF-8"?>
<svg width="120px" height="120px" viewBox="0 0 120 120" version="1.1" xmlns="http://www.w3.org/2000/svg" xmlns:xlink="http://www.w3.org/1999/xlink">
    <!-- Generator: Sketch 58 (84663) - https://sketch.com -->
    <title>errorBoundary</title>
    <desc>Created with Sketch.</desc>
    <g id="Welcome" stroke="none" stroke-width="1" fill="none" fill-rule="evenodd">
        <g id="errorBoundary" fill-rule="nonzero">
            <g id="resources">
                <path d="M108,120 L12,120 C5.4,120 0,114.6 0,108 L0,12 C0,5.4 5.4,0 12,0 L108,0 C114.6,0 120,5.4 120,12 L120,108 C120,114.6 114.6,120 108,120 Z" id="Shape" fill="#463EA9"></path>
                <g id="icon_lightning_component_w_tile-+-Path-1" transform="translate(20.000000, 20.000000)" fill="#FFFFFF">
                    <path d="M71.936202,0 L27.6248812,0 C23.0211076,0 18.9928058,3.3272727 18.9928058,7.7636364 L18.9928058,9.4272727 C18.9928058,9.9818182 19.5682775,10.5363636 20.7192208,10.5363636 L60.426768,10.5363636 C65.0305416,10.5363636 69.0588435,14.4181818 69.0588435,18.8545455 L69.0588435,59.8909091 C69.0588435,60.4454545 69.6343152,61 70.2097869,61 C75.3890322,61 79.9928058,57.1181818 79.9928058,52.1272727 L79.9928058,7.7636364 C79.9928058,3.3272727 76.5399756,0 71.936202,0 L71.936202,0 Z M8,19 C3.4285714,19 0,22.3272727 0,26.7636364 L0,72.2363636 C0,76.6727273 3.4285714,80 8,80 L52,80 C56.5714286,80 60,76.6727273 60,72.2363636 L60,26.7636364 C60,22.3272727 56.5714286,19 52,19 L8,19 Z M10,49.0016655 C10,47.3438914 11.3390201,46 13.0016655,46 L14.9983345,46 C16.6561086,46 18,47.3390201 18,49.0016655 L18,50.9983345 C18,52.6561086 16.6609799,54 14.9983345,54 L13.0016655,54 C11.3438914,54 10,52.6609799 10,50.9983345 L10,49.0016655 Z M10,34.0016655 C10,32.3438914 11.3390201,31 13.0016655,31 L14.9983345,31 C16.6561086,31 18,32.3390201 18,34.0016655 L18,35.9983345 C18,37.6561086 16.6609799,39 14.9983345,39 L13.0016655,39 C11.3438914,39 10,37.6609799 10,35.9983345 L10,34.0016655 Z M24,64.0016655 C24,62.3438914 25.3431234,61 27.0079301,61 L46.9920699,61 C48.6533038,61 50,62.3390201 50,64.0016655 L50,65.9983345 C50,67.6561086 48.6568766,69 46.9920699,69 L27.0079301,69 C25.3466962,69 24,67.6609799 24,65.9983345 L24,64.0016655 Z M10,64.0016655 C10,62.3438914 11.3390201,61 13.0016655,61 L14.9983345,61 C16.6561086,61 18,62.3390201 18,64.0016655 L18,65.9983345 C18,67.6561086 16.6609799,69 14.9983345,69 L13.0016655,69 C11.3438914,69 10,67.6609799 10,65.9983345 L10,64.0016655 Z" id="Shape-Copy"></path>
                </g>
            </g>
            <g id="edit" transform="translate(46.000000, 48.000000)" fill="#463EA9">
                <path d="M4.16314199,16.9969789 L9.00302115,21.836858 C9.22054381,22.0543807 9.54682779,22.0543807 9.76435045,21.836858 L21.836858,9.70996979 C22.0543807,9.49244713 22.0543807,9.16616314 21.836858,8.94864048 L17.0513595,4.16314199 C16.8338369,3.94561934 16.5075529,3.94561934 16.2900302,4.16314199 L4.16314199,16.2900302 C3.94561934,16.5075529 3.94561934,16.8338369 4.16314199,16.9969789 Z" id="Path"></path>
                <path d="M18.1690141,2.08450704 C17.943662,2.30985915 17.943662,2.64788732 18.1690141,2.87323944 L23.1267606,7.83098592 C23.3521127,8.05633803 23.6901408,8.05633803 23.915493,7.83098592 L25.3239437,6.42253521 C26.2253521,5.57746479 26.2253521,4.22535211 25.3239437,3.32394366 L22.6760563,0.676056338 C21.7746479,-0.225352113 20.3661972,-0.225352113 19.4647887,0.676056338 L18.1690141,2.08450704 Z" id="Path"></path>
                <path d="M0.0161546281,25.0056445 C-0.0989278277,25.5810568 0.418943223,26.0989278 0.994355502,25.9838454 L7.26634934,24.4877734 C7.49651426,24.4302322 7.66913794,24.3151498 7.7842204,24.2000673 L7.89930285,24.0849849 C8.01438531,23.9699024 8.07192653,23.5671138 7.84176162,23.3369489 L2.66305111,18.1582384 C2.4328862,17.9280735 2.0300976,17.9856147 1.91501515,18.1006971 C1.79993269,18.2157796 1.79993269,18.2157796 1.79993269,18.2157796 C1.62730901,18.3884033 1.56976778,18.561027 1.51222655,18.7336507 L0.0161546281,25.0056445 Z" id="Path"></path>
            </g>
        </g>
    </g>
</svg>